<svg width="62" height="62" viewBox="0 0 62 62" fill="none" xmlns="http://www.w3.org/2000/svg">
<path d="M30.7827 0C13.7821 0 0 13.7821 0 30.7827C0 46.0303 11.0978 58.6578 25.6488 61.1031V37.2048H18.2231V28.6048H25.6488V22.2635C25.6488 14.9057 30.1427 10.8962 36.7072 10.8962C39.8513 10.8962 42.5532 11.1304 43.3375 11.2336V18.9244L38.7845 18.9266C35.2153 18.9266 34.5271 20.6224 34.5271 23.1117V28.6004H43.0438L41.933 37.2004H34.5271V61.3087C49.7575 59.455 61.565 46.5058 61.565 30.7739C61.565 13.7821 47.783 0 30.7827 0Z" fill="white"/>
</svg>
